<svg xmlns="http://www.w3.org/2000/svg" id="Calque_1" data-name="Calque 1" viewBox="0 0 321 60"><defs><style>.cls-1{fill:#e20613;}</style></defs><title>LOGO_MANIET_LUXUS</title><path class="cls-1" d="M185.05,2.34c-4.62.23-10.22,10.38-10.91,19.43-.49,6.4,4,15.54,8.49,16.45,3.8.78,8.3-8.9,8.39-18.09C191.09,12.73,190.19,2.07,185.05,2.34Z"/><path class="cls-1" d="M177.76,41.42c-3.11-.53-6.1,2.59-6.69,7s1.48,8.48,4.62,9,6.15-2.63,6.71-7.08S180.87,42,177.76,41.42Z"/><path class="cls-1" d="M33.05,28.29a15.05,15.05,0,0,0-8.72,2.51c-2.09-2.05-4.44-2.41-7.31-2.41a11.75,11.75,0,0,0-4.39.77A8.35,8.35,0,0,1,9.76,30H9.44c0-.77.05-1.23-1-1.23H1.68a.69.69,0,0,0-.68.67v3.79a.68.68,0,0,0,.68.66h2V53.8a.68.68,0,0,0,.67.67H9.28A.69.69,0,0,0,10,53.8V37a3.09,3.09,0,0,1,1.67-3.13,7.34,7.34,0,0,1,3.45-.82c3.5,0,4.8,2.2,4.8,5.39V53.81a.69.69,0,0,0,.68.67h4.91a.69.69,0,0,0,.68-.67V37c0-1.54.21-2.26,1.62-3.08a6.63,6.63,0,0,1,3.29-.87c3.55,0,5,2,5,5.39V53.81a.69.69,0,0,0,.68.67h4.91a.69.69,0,0,0,.68-.67V37.23C42.35,31.32,39,28.29,33.05,28.29Z"/><path class="cls-1" d="M71.93,49.35H69.87V35.48c0-5.7-4.91-7.08-9.82-7.08A26.13,26.13,0,0,0,50.54,30c-.73.31-1,.51-1,1.34V34.2c0,.36.1.82.58.82a2.12,2.12,0,0,0,.83-.26,19.11,19.11,0,0,1,8.25-2.11c1.88,0,4.5.51,4.5,2.82,0,1.39-.94,1.49-2,1.85l-5.38,1.74c-4.54,1.49-8.31,3.13-8.31,8.43,0,5,3.66,7.5,8.47,7.5a10.43,10.43,0,0,0,4.81-1,6.17,6.17,0,0,1,2.51-.77h.47c0,.57-.15,1.29.68,1.29H72a.69.69,0,0,0,.68-.67V50A.72.72,0,0,0,71.93,49.35ZM63.6,46.83a3,3,0,0,1-1.1,2.82,5.72,5.72,0,0,1-3.55,1c-2.35,0-4.76-1-4.76-3.65s3.13-3.9,5.43-4.62l4-1.29v5.76Z"/><path class="cls-1" d="M92.88,28.29a12.8,12.8,0,0,0-4.44.72,9.51,9.51,0,0,1-3.55,1c0-.72.1-1.18-.89-1.18H76.83a.69.69,0,0,0-.68.67v3.79a.68.68,0,0,0,.68.66h2.31V53.81a.69.69,0,0,0,.68.67h4.91a.69.69,0,0,0,.68-.67V37.17c0-3,2.46-4.1,5.23-4.1,3.76,0,5.22,1.8,5.22,5.39V53.81a.69.69,0,0,0,.68.67h4.91a.69.69,0,0,0,.68-.67V37.58C102.13,31.63,99,28.29,92.88,28.29Z"/><path class="cls-1" d="M114.16,19.65c-2.3,0-3.82.72-3.82,3.18s1.26,3.23,3.6,3.23,3.71-.82,3.71-3.18S116.4,19.65,114.16,19.65Z"/><path class="cls-1" d="M116.45,28.8H109a.69.69,0,0,0-.68.67v3.79a.68.68,0,0,0,.68.66h1.9V53.8a.69.69,0,0,0,.69.67h4.9a.69.69,0,0,0,.68-.67V29.47A.69.69,0,0,0,116.45,28.8Z"/><path class="cls-1" d="M145.08,35.67c0-7.52-7.8-7.37-10.08-7.37-8,0-12,5.54-12,13.42C123,50.27,127.54,55,135.81,55a19,19,0,0,0,8.27-1.66l0,0c.79-.44,1-1.09,1-2.14v-1c0-1.34-1.21-1.59-2.25-1.06a15.6,15.6,0,0,1-3.12,1.19,11.91,11.91,0,0,1-3,.36,7.15,7.15,0,0,1-6.84-4C134.82,45.44,145.08,43.34,145.08,35.67ZM133.67,40.8a17.34,17.34,0,0,1-4.59,1v-2.1c0-2.74,1.75-6.94,5.92-6.94,2.62,0,3.88.93,3.88,3.39C138.88,39,135.57,40.18,133.67,40.8Z"/><path class="cls-1" d="M163.86,28.81H158.7V21.47a.69.69,0,0,0-.68-.67h-4.9a.68.68,0,0,0-.68.67v7.34h-1.89a.69.69,0,0,0-.68.67v3.79a.68.68,0,0,0,.68.66h1.89V47.8c0,2.05.31,4,2,5.34a10.07,10.07,0,0,0,6.16,1.75,11,11,0,0,0,3.12-.31c.63-.31.78-.46.78-1.18v-3c0-.36-.1-.62-.52-.62a7.37,7.37,0,0,1-1.72.26c-2.51,0-3.6-1.28-3.6-3.69V33.93h5.16a.69.69,0,0,0,.68-.66V29.48A.69.69,0,0,0,163.86,28.81Z"/><path class="cls-1" d="M312.46,38.34c-.42-.25-3.61-2-3.61-3.65s1.7-2.25,3.19-2.25a13.7,13.7,0,0,1,5.78,1.36,2.32,2.32,0,0,0,1.05.34c.48,0,.6-.49.6-.86V30.67c0-.82-1.55-1.51-2.71-1.82a20.78,20.78,0,0,0-5.46-.73c-4.78,0-8.81,2.5-8.81,7.56,0,4,2.6,5.63,5.68,7.51l2.54,1.57c1.33.83,2.92,1.62,2.92,3.34,0,2-1.86,2.5-3.61,2.5a13,13,0,0,1-6.53-1.78,2.05,2.05,0,0,0-.95-.31c-.59,0-.59.58-.59,1v2.82c0,1.1.21,1.2,1.22,1.51a22.72,22.72,0,0,0,7,1.2c5,0,9.82-2.14,9.82-7.72C320,42.36,316.18,40.63,312.46,38.34Z"/><path class="cls-1" d="M260.27,40.51l7.13-10.83a1,1,0,0,0,.1-.41c0-.51-.47-.66-.94-.66h-3.9a1.22,1.22,0,0,0-1.09.46l-4.16,7.2-4.47-7.1c-.31-.51-.57-.56-1.2-.56H246a.52.52,0,0,0-.45.83l7.89,11.33-8,12.06a1.24,1.24,0,0,0-.26.61c0,.51.47.72.93.72h4.11a1,1,0,0,0,1-.61l5.15-8.28,5.2,8.18a1.32,1.32,0,0,0,1.19.72h5.05c.41,0,.94-.31.94-.77a1.24,1.24,0,0,0-.26-.71Z"/><path class="cls-1" d="M240.62,49.3h-1.46V29.42a.69.69,0,0,0-.68-.67h-4.91a.69.69,0,0,0-.68.67V46.05c0,3-2.46,4.11-5.23,4.11-3.76,0-5.22-1.8-5.22-5.39V29.42a.69.69,0,0,0-.68-.67h-4.91a.69.69,0,0,0-.68.67V45.64c0,6,3.14,9.29,9.25,9.29a12.8,12.8,0,0,0,4.44-.72,9.65,9.65,0,0,1,3.55-1c0,.72-.1,1.19.89,1.19h6.32a.69.69,0,0,0,.68-.67V50A.7.7,0,0,0,240.62,49.3Z"/><path class="cls-1" d="M296.85,49.3h-1.52V29.42a.69.69,0,0,0-.68-.67h-4.91a.69.69,0,0,0-.68.67V46.05c0,3-2.45,4.11-5.22,4.11-3.76,0-5.23-1.8-5.23-5.39V29.42a.69.69,0,0,0-.68-.67H273a.69.69,0,0,0-.68.67V45.64c0,6,3.13,9.29,9.25,9.29a12.84,12.84,0,0,0,4.44-.72,9.65,9.65,0,0,1,3.55-1c0,.72-.11,1.19.89,1.19h6.38a.69.69,0,0,0,.68-.67V50A.68.68,0,0,0,296.85,49.3Z"/><path class="cls-1" d="M211.93,49.57c-.44,0-2.63.27-3.9.27-2.62,0-4.39-1.28-4.39-3.69V22.47a.71.71,0,0,0-.71-.67h-5a.61.61,0,0,0-.62.6V47.63c0,2,.31,4,2.11,5.34a10.36,10.36,0,0,0,6.27,1.75,27.68,27.68,0,0,0,6-.44c.68-.25.82-.46.82-1.18V50.2C212.48,49.83,212.37,49.57,211.93,49.57Z"/><path class="cls-1" d="M11.35,15.58h4.23c.15,0,.23,0,.24-.08a1,1,0,0,0,0-.18v-1.2a1.1,1.1,0,0,0,0-.18c0-.06-.09-.08-.24-.08h-.94v-5a4.45,4.45,0,0,1,.73-.53,1.65,1.65,0,0,1,.84-.25.86.86,0,0,1,.57.17,1.16,1.16,0,0,1,.29.31,1.18,1.18,0,0,1,.17.52c0,.19,0,.37,0,.56v5.69c0,.14,0,.21.09.23l.17,0h3c.15,0,.23,0,.24-.08a1,1,0,0,0,0-.18v-1.2a1.1,1.1,0,0,0,0-.18c0-.06-.09-.08-.24-.08h-.94V9.07a8,8,0,0,0-.06-.92,2.58,2.58,0,0,0-.3-1,2.06,2.06,0,0,0-.72-.75,2.5,2.5,0,0,0-1.33-.3A3.92,3.92,0,0,0,16,6.36a4,4,0,0,0-1.34.84V2.6a1.1,1.1,0,0,0,0-.18c0-.06-.09-.08-.24-.08h-3l-.17,0c-.06,0-.09.09-.09.23V3.8c0,.14,0,.21.09.23a.51.51,0,0,0,.17,0h.92v9.81h-.94c-.14,0-.21,0-.23.09a.55.55,0,0,0,0,.17v1.2c0,.14,0,.21.09.23Z"/><path class="cls-1" d="M23,15.24a2.44,2.44,0,0,0,.89.5,3.51,3.51,0,0,0,1,.16,2.86,2.86,0,0,0,1.29-.27,4.15,4.15,0,0,0,1.09-.84.07.07,0,0,0,0,.05s0,0,0,.06a1.48,1.48,0,0,0,.17.49.39.39,0,0,0,.37.19H30.2c.15,0,.23,0,.24-.08a1,1,0,0,0,0-.18v-1.2a.61.61,0,0,0,0-.17c0-.06-.09-.09-.23-.09h-.8l0-.07c0-.09-.05-.17-.06-.25s0-.17-.06-.28a3.18,3.18,0,0,1,0-.38c0-.15,0-.34,0-.57V9.11a5.54,5.54,0,0,0-.09-1,2.46,2.46,0,0,0-.4-1,2.51,2.51,0,0,0-.9-.75,3.47,3.47,0,0,0-1.58-.3,8.29,8.29,0,0,0-1.95.19q-.78.2-1.08.3a.8.8,0,0,0-.31.16.31.31,0,0,0-.11.16.2.2,0,0,0,0,.15c0,.05,0,.09.05.13l.37,1.13a.34.34,0,0,0,.06.12.16.16,0,0,0,.13.07.44.44,0,0,0,.22-.05L24,8.36c.17-.06.43-.14.77-.23A4.25,4.25,0,0,1,25.84,8a1.27,1.27,0,0,1,.68.15.87.87,0,0,1,.34.35,1.07,1.07,0,0,1,.12.44c0,.16,0,.3,0,.43v.57h-.26a9.84,9.84,0,0,0-1.88.16,4.07,4.07,0,0,0-1.44.52,2.56,2.56,0,0,0-.91,1,3.13,3.13,0,0,0-.32,1.47,3.21,3.21,0,0,0,.24,1.3A2.31,2.31,0,0,0,23,15.24Zm1.55-3a1.4,1.4,0,0,1,.47-.44,2.24,2.24,0,0,1,.92-.28c.33,0,.63,0,.9,0H27v2a3.25,3.25,0,0,1-.64.51,1.39,1.39,0,0,1-.75.19,1.19,1.19,0,0,1-.88-.35,1.24,1.24,0,0,1-.34-.91A1.3,1.3,0,0,1,24.59,12.2Z"/><path class="cls-1" d="M31.43,8.17h.94V13a8.61,8.61,0,0,0,.06.94,2.52,2.52,0,0,0,.32,1,1.83,1.83,0,0,0,.86.77,3.17,3.17,0,0,0,1.23.23,5.23,5.23,0,0,0,.82-.07,2.75,2.75,0,0,0,1-.38,2,2,0,0,0,.42-.28c.1-.09.19-.18.28-.25l.22-.2.06.22a1.68,1.68,0,0,0,.2.49.36.36,0,0,0,.33.16h2.46c.15,0,.23,0,.24-.08a1,1,0,0,0,0-.18v-1.2c0-.15,0-.23-.08-.24l-.17,0h-.78a3.86,3.86,0,0,1-.12-.49,7,7,0,0,1-.06-1.08V6.71a1.1,1.1,0,0,0,0-.18c0-.06-.09-.08-.24-.08h-3c-.14,0-.21,0-.23.09a.55.55,0,0,0,0,.17v1.2c0,.14,0,.21.09.23l.17,0h.94v5.12a3.27,3.27,0,0,1-.69.52,1.7,1.7,0,0,1-.86.24,1.34,1.34,0,0,1-.49-.1.8.8,0,0,1-.42-.41,1.62,1.62,0,0,1-.13-.47,4.16,4.16,0,0,1,0-.66V6.71a1.1,1.1,0,0,0,0-.18c0-.06-.09-.08-.24-.08h-3c-.14,0-.21,0-.23.09a.55.55,0,0,0,0,.17v1.2c0,.14,0,.21.09.23A.45.45,0,0,0,31.43,8.17Z"/><path class="cls-1" d="M48.72,12.92a2.43,2.43,0,0,0-.18-1,2.79,2.79,0,0,0-1.33-1.45,7.86,7.86,0,0,0-.84-.37l-.7-.26-.52-.2a1.51,1.51,0,0,1-.45-.29.68.68,0,0,1-.19-.54,1.31,1.31,0,0,1,0-.23.74.74,0,0,1,.15-.31A1.12,1.12,0,0,1,45,8a1.59,1.59,0,0,1,.65-.11l.41,0a1.61,1.61,0,0,1,.33.06v.9c0,.14,0,.21.09.23l.17,0H48l.17,0s.07-.09.07-.24V7a.46.46,0,0,0-.28-.39,2.67,2.67,0,0,0-.66-.27,5.24,5.24,0,0,0-.79-.15,6,6,0,0,0-.63-.05,4.24,4.24,0,0,0-1.55.24,3,3,0,0,0-1,.67,3.6,3.6,0,0,0-.58.8,2.69,2.69,0,0,0-.29,1.32,2.82,2.82,0,0,0,.13.87,2.05,2.05,0,0,0,.48.79,2.63,2.63,0,0,0,.64.5c.24.13.51.26.82.39l.63.22c.25.09.48.18.7.28a2.48,2.48,0,0,1,.5.31.71.71,0,0,1,.22.59,1.18,1.18,0,0,1,0,.3.64.64,0,0,1-.17.31,1,1,0,0,1-.35.23,1.55,1.55,0,0,1-.57.09,3.26,3.26,0,0,1-.62-.06c-.2,0-.43-.11-.69-.19v-.9a.82.82,0,0,0,0-.23c0-.07-.09-.1-.24-.1H42.55l-.17,0c-.06,0-.09.1-.09.23v2q0,.25.39.45a4.68,4.68,0,0,0,.92.33,10.28,10.28,0,0,0,1.08.21,6.48,6.48,0,0,0,.86.07A3.25,3.25,0,0,0,47,15.62a3.46,3.46,0,0,0,.87-.59,2.46,2.46,0,0,0,.65-1A3.62,3.62,0,0,0,48.72,12.92Z"/><path class="cls-1" d="M50.55,15.27a4.68,4.68,0,0,0,.92.33,10.28,10.28,0,0,0,1.08.21,6.48,6.48,0,0,0,.86.07,3.25,3.25,0,0,0,1.48-.28,3.46,3.46,0,0,0,.87-.59,2.46,2.46,0,0,0,.65-1,3.51,3.51,0,0,0,.18-1.05,2.43,2.43,0,0,0-.18-1,2.79,2.79,0,0,0-1.33-1.45,7.86,7.86,0,0,0-.84-.37l-.7-.26L53,9.66a1.31,1.31,0,0,1-.45-.28.68.68,0,0,1-.19-.54,1.31,1.31,0,0,1,0-.23.74.74,0,0,1,.15-.31A1.12,1.12,0,0,1,52.91,8a1.61,1.61,0,0,1,.66-.11l.41,0a1.61,1.61,0,0,1,.33.06v.9c0,.14,0,.21.09.23a.51.51,0,0,0,.17,0h1.27l.17,0c.05,0,.07-.09.07-.24V7a.46.46,0,0,0-.28-.39,2.6,2.6,0,0,0-.67-.27,5.36,5.36,0,0,0-.78-.15,6.13,6.13,0,0,0-.64-.05,4.24,4.24,0,0,0-1.55.24,2.83,2.83,0,0,0-1,.67,3.6,3.6,0,0,0-.58.8,2.69,2.69,0,0,0-.29,1.32,2.82,2.82,0,0,0,.13.87,2.05,2.05,0,0,0,.48.79,2.83,2.83,0,0,0,.64.5c.24.13.51.26.82.39l.63.22c.25.09.48.18.7.28a2.8,2.8,0,0,1,.5.31.71.71,0,0,1,.22.59,1.18,1.18,0,0,1,0,.3.74.74,0,0,1-.17.31,1,1,0,0,1-.35.23,1.55,1.55,0,0,1-.57.09,3.18,3.18,0,0,1-.62-.06c-.2,0-.43-.11-.69-.19v-.9a1.52,1.52,0,0,0,0-.23c0-.07-.09-.1-.24-.1H50.43l-.17,0c-.06,0-.09.1-.09.23v2C50.16,15,50.29,15.15,50.55,15.27Z"/><path class="cls-1" d="M58,8.17h.94V13a6.83,6.83,0,0,0,.07.94,2.52,2.52,0,0,0,.32,1,1.83,1.83,0,0,0,.86.77,3.17,3.17,0,0,0,1.23.23,5.23,5.23,0,0,0,.82-.07,2.65,2.65,0,0,0,1-.38,2.47,2.47,0,0,0,.43-.28c.1-.09.19-.18.28-.25l.22-.2.06.22a1.43,1.43,0,0,0,.21.49.36.36,0,0,0,.33.16h2.46c.15,0,.23,0,.24-.08a1,1,0,0,0,0-.18v-1.2c0-.15,0-.23-.08-.24l-.18,0h-.77a2.65,2.65,0,0,1-.12-.49,6.68,6.68,0,0,1-.07-1.08V6.71a1.1,1.1,0,0,0,0-.18c0-.06-.09-.08-.24-.08H63c-.14,0-.21,0-.23.09a.55.55,0,0,0,0,.17v1.2c0,.14,0,.21.09.23l.17,0h.94v5.12a3.27,3.27,0,0,1-.69.52,1.7,1.7,0,0,1-.86.24,1.34,1.34,0,0,1-.49-.1.8.8,0,0,1-.42-.41,2,2,0,0,1-.13-.47,5.83,5.83,0,0,1,0-.66V6.71a1.1,1.1,0,0,0,0-.18c0-.06-.09-.08-.24-.08H58c-.14,0-.21,0-.23.09a.55.55,0,0,0,0,.17v1.2c0,.14,0,.21.09.23A.38.38,0,0,0,58,8.17Z"/><path class="cls-1" d="M75.12,6.27a1.25,1.25,0,0,0-.37-.1l-.4,0a2.09,2.09,0,0,0-1.2.35,4,4,0,0,0-1,1l-.1.15L72,7.36a3.35,3.35,0,0,0-.2-.61.45.45,0,0,0-.43-.3H69c-.14,0-.21,0-.23.09a.55.55,0,0,0,0,.17v1.2c0,.14,0,.21.09.23l.17,0h.89l0,.13a3.43,3.43,0,0,1,.14.87c0,.28,0,.47,0,.57v4.12h-.94c-.14,0-.21,0-.23.09a.55.55,0,0,0,0,.17v1.2c0,.14,0,.21.09.23l.17,0h4.29c.15,0,.23,0,.24-.08a1,1,0,0,0,0-.18v-1.2a.55.55,0,0,0,0-.18c0-.06-.09-.08-.24-.08h-1V9.15a6.24,6.24,0,0,1,.65-.6,1.23,1.23,0,0,1,.8-.29l.34,0a.92.92,0,0,1,.34.12l.09,0,.09,0s.06-.05.11-.17l.57-1.55a.29.29,0,0,0,0-.29A.62.62,0,0,0,75.12,6.27Z"/><path class="cls-1" d="M77.31,14.82a3.12,3.12,0,0,0,1.33.83,5.46,5.46,0,0,0,1.66.24,7,7,0,0,0,1.62-.2,4.16,4.16,0,0,0,1.34-.54c.19-.14.3-.26.3-.37a.43.43,0,0,0,0-.11.39.39,0,0,0,0-.09L83,13.49a.2.2,0,0,0-.2-.15,1.06,1.06,0,0,0-.3.09l-.1.05a.24.24,0,0,0-.1,0,3.82,3.82,0,0,1-.73.27,3.7,3.7,0,0,1-1.12.15,1.81,1.81,0,0,1-1.59-.65,2.93,2.93,0,0,1-.44-1.66h5c.19,0,.3,0,.35-.11a1,1,0,0,0,.07-.48,7.32,7.32,0,0,0-.38-2.58A4.1,4.1,0,0,0,82.54,7a2.8,2.8,0,0,0-1.2-.68,4.8,4.8,0,0,0-1.18-.17,3.48,3.48,0,0,0-1.72.38,4.55,4.55,0,0,0-1.11.9A4.76,4.76,0,0,0,76.4,9.1a7.36,7.36,0,0,0-.29,2.15,5.88,5.88,0,0,0,.36,2.23A4.06,4.06,0,0,0,77.31,14.82Zm1.28-5.76a1.71,1.71,0,0,1,.35-.7A1.36,1.36,0,0,1,79.43,8,1.55,1.55,0,0,1,80,7.86a1.27,1.27,0,0,1,.88.33,1.17,1.17,0,0,1,.28.4,2.32,2.32,0,0,1,.13.4c0,.12,0,.25,0,.37s0,.25,0,.39v.18h-2.9A6.6,6.6,0,0,1,78.59,9.06Z"/><path class="cls-1" d="M85.74,15.27a4.68,4.68,0,0,0,.92.33,10.28,10.28,0,0,0,1.08.21,6.48,6.48,0,0,0,.86.07,3.25,3.25,0,0,0,1.48-.28A3.46,3.46,0,0,0,91,15a2.58,2.58,0,0,0,.66-1,3.47,3.47,0,0,0,.17-1.05,2.63,2.63,0,0,0-.17-1,2.79,2.79,0,0,0-1.33-1.45,7.86,7.86,0,0,0-.84-.37l-.7-.26-.52-.2a1.51,1.51,0,0,1-.45-.29.69.69,0,0,1-.2-.54,1.31,1.31,0,0,1,0-.23.74.74,0,0,1,.15-.31A1.12,1.12,0,0,1,88.1,8a1.61,1.61,0,0,1,.66-.11l.41,0A1.61,1.61,0,0,1,89.5,8v.9c0,.14,0,.21.09.23l.17,0H91l.17,0c.05,0,.07-.09.07-.24V7A.46.46,0,0,0,91,6.6a2.67,2.67,0,0,0-.66-.27,5.24,5.24,0,0,0-.79-.15,6.13,6.13,0,0,0-.64,0,4.24,4.24,0,0,0-1.55.24,3,3,0,0,0-1,.67,3.6,3.6,0,0,0-.58.8,2.69,2.69,0,0,0-.29,1.32,2.82,2.82,0,0,0,.13.87,2.05,2.05,0,0,0,.48.79,2.63,2.63,0,0,0,.64.5c.24.13.51.26.82.39l.63.22c.25.09.48.18.7.28a2.48,2.48,0,0,1,.5.31.71.71,0,0,1,.22.59,1.18,1.18,0,0,1,0,.3.64.64,0,0,1-.17.31A1,1,0,0,1,89,14a1.55,1.55,0,0,1-.57.09,3.18,3.18,0,0,1-.62-.06c-.2,0-.43-.11-.69-.19v-.9a1.52,1.52,0,0,0,0-.23c0-.07-.09-.1-.24-.1H85.61l-.17,0c-.06,0-.09.1-.09.23v2C85.35,15,85.48,15.15,85.74,15.27Z"/><path class="cls-1" d="M3.24,12.94a5.16,5.16,0,0,0,.4,1,3.46,3.46,0,0,0,.72.95,3.54,3.54,0,0,0,1.14.69,4.55,4.55,0,0,0,1.66.27A5.09,5.09,0,0,0,8,15.82a6.56,6.56,0,0,0,.84-.17,3.43,3.43,0,0,0,.65-.24c.17-.09.26-.19.26-.29a.31.31,0,0,0,0-.08.42.42,0,0,0,0-.1l-.48-1.22,0-.06a.13.13,0,0,0-.1,0,.23.23,0,0,0-.11,0l-.17.06c-.11,0-.29.11-.53.19a2.57,2.57,0,0,1-.82.12,1.73,1.73,0,0,1-1.11-.32,1.82,1.82,0,0,1-.56-.79,3.16,3.16,0,0,1-.2-1q0-.51,0-.9a6.92,6.92,0,0,1,.14-1.49,2.94,2.94,0,0,1,.37-1,1.37,1.37,0,0,1,.55-.5A1.67,1.67,0,0,1,7.32,8,1.77,1.77,0,0,1,7.84,8V9.39c0,.14,0,.21.09.23a.22.22,0,0,0,.17.07H9.43l.17,0c.06,0,.09-.09.09-.23V6.94a.41.41,0,0,0-.25-.35,2.78,2.78,0,0,0-.6-.25,4.41,4.41,0,0,0-.74-.15,6.22,6.22,0,0,0-.68-.05,5.62,5.62,0,0,0-1.4.2A3.71,3.71,0,0,0,4.6,7.1,4.35,4.35,0,0,0,3.5,8.64a6.26,6.26,0,0,0-.44,2.56c0,.2,0,.45,0,.76A5.19,5.19,0,0,0,3.24,12.94Z"/></svg>